Coordinates
version=1
nRows=24
nColumns=19
inDegrees=yes

Units are S.I. units (second, meters, Newtons, ...)
If the header above contains a line with 'inDegrees', this indicates whether rotational values are in degrees (yes) or radians (no).

endheader
time	pelvis_tilt	pelvis_list	pelvis_rotation	pelvis_tx	pelvis_ty	pelvis_tz	hip_flexion_r	hip_adduction_r	hip_rotation_r	knee_angle_r	knee_angle_r_beta	ankle_angle_r	hip_flexion_l	hip_adduction_l	hip_rotation_l	knee_angle_l	knee_angle_l_beta	ankle_angle_l
     13.22000000	     -6.07392910	      9.79303208	      0.48033223	      2.36540132	      1.01804963	      1.02053100	    -15.91661294	    -14.18329486	    -10.87711395	     69.00094933	      1.20429375	    -18.02753719	     31.93948910	     12.08183140	     -9.50334328	     11.29413082	      0.19711977	      6.70238022
     13.22666667	     -6.17018685	     10.17928775	      0.69951274	      2.36356655	      1.01375911	      1.02053499	    -13.99781552	    -13.99866894	     -8.95849469	     73.58848891	      1.28436142	    -17.68981204	     32.60319044	     12.21956381	    -10.99938275	     14.41749079	      0.25163268	      6.20988494
     13.23333333	     -5.95163895	     10.60366906	      1.01560322	      2.36163074	      1.00939887	      1.02073846	    -12.43620576	    -13.82563319	     -7.44313219	     78.02909241	      1.36186457	    -17.34402890	     32.93077654	     12.37546781	    -12.32488330	     17.86058468	      0.31172601	      5.78936820
     13.24000000	     -5.80668966	     10.89817137	      1.44591537	      2.35947679	      1.00462580	      1.02105681	    -10.73566234	    -13.49195985	     -6.15566280	     82.37688515	      1.43774787	    -16.90948376	     33.34220027	     12.39113508	    -13.35060902	     21.59127554	      0.37683885	      5.46932090
     13.24666667	     -5.72159864	     11.12338330	      1.92788922	      2.35710338	      0.99953679	      1.02148407	     -8.88743291	    -13.12490369	     -5.05931589	     86.62543092	      1.51189899	    -16.35766373	     33.76658666	     12.33844486	    -14.06841987	     25.42222935	      0.44370161	      5.37209599
     13.25333333	     -5.70448814	     11.22987603	      2.47734958	      2.35447763	      0.99428464	      1.02188807	     -6.87513696	    -12.71020628	     -4.16469947	     90.74035398	      1.58371794	    -15.68815535	     34.18419246	     12.23066385	    -14.40697384	     29.25030158	      0.51051407	      5.58185322
     13.26000000	     -5.78334488	     11.27752489	      3.09246400	      2.35159976	      0.98894136	      1.02219827	     -4.66116047	    -12.34401239	     -3.44984592	     94.70877048	      1.65297988	    -14.89053071	     34.59351129	     12.16132593	    -14.38275807	     32.96864483	      0.57541140	      6.20272613
     13.26666667	     -5.91198181	     11.27809931	      3.72215714	      2.34846354	      0.98373424	      1.02238669	     -2.27124350	    -12.06065927	     -2.84786421	     98.50076184	      1.71916261	    -13.96043148	     34.90974619	     12.14906518	    -14.05828125	     36.47282945	      0.63657096	      7.25744500
     13.27333333	     -6.10400499	     11.21643571	      4.34137898	      2.34510149	      0.97877309	      1.02243153	      0.33460074	    -11.84604942	     -2.29447127	    102.08503801	      1.78172003	    -12.97903471	     35.12392868	     12.17555122	    -13.49446907	     39.70804870	      0.69303619	      8.73706979
     13.28000000	     -6.30546278	     11.11485481	      4.92297629	      2.34156789	      0.97426560	      1.02231756	      3.09856303	    -11.71801575	     -1.75867288	    105.41616119	      1.83985910	    -11.96792288	     35.13822041	     12.25218801	    -12.75224517	     42.59524388	      0.74342725	     10.58237434
     13.28666667	     -6.55679412	     10.99669769	      5.41807572	      2.33794503	      0.97031798	      1.02204853	      6.08238871	    -11.68231321	     -1.14579618	    108.46790243	      1.89312203	    -10.90935230	     34.95475846	     12.37349774	    -11.91180371	     45.04834851	      0.78624200	     12.69965733
     13.29333333	     -6.76205563	     10.83853241	      5.84464232	      2.33439379	      0.96701992	      1.02168314	      9.14322993	    -11.71009883	     -0.53994476	    111.17217074	      1.94032042	     -9.94455221	     34.46684394	     12.47741557	    -11.01651204	     47.10070422	      0.82206237	     14.98298714
     13.30000000	     -6.92931163	     10.68244956	      6.13880230	      2.33101727	      0.96451338	      1.02125123	     12.29374426	    -11.77917591	      0.16612729	    113.49689011	      1.98089442	     -9.00361386	     33.63855511	     12.57766337	    -10.13217133	     48.64570741	      0.84902776	     17.33927331
     13.30666667	     -7.02934958	     10.49358000	      6.31252368	      2.32795297	      0.96283964	      1.02075895	     15.45989468	    -11.82914683	      0.91044793	    115.39431263	      2.01401069	     -8.12412180	     32.44512110	     12.62188861	     -9.25934037	     49.70948461	      0.86759418	     19.65553985
     13.31333333	     -6.59778938	     10.35172076	      6.44628939	      2.32550487	      0.96266950	      1.02015873	     17.96193688	    -11.97506915	      1.42979697	    116.71874902	      2.03712647	     -7.27831506	     30.31645056	     12.71755549	     -8.26744651	     50.19845401	      0.87612830	     21.88263836
     13.32000000	     -6.40378546	     10.07189790	      6.43863539	      2.32341509	      0.96290919	      1.01953383	     20.79325622	    -11.91299372	      2.04041034	    117.64632602	      2.05331574	     -6.44272151	     28.21884460	     12.58801583	     -7.42899983	     50.28676287	      0.87766958	     23.86087765
     13.32666667	     -6.58419985	      9.69179478	      6.13274768	      2.32180909	      0.96336254	      1.01920341	     24.14463808	    -11.59495612	      2.87157940	    118.20060615	      2.06298976	     -5.76901102	     26.32275927	     12.21936613	     -6.91513486	     49.97952027	      0.87230719	     25.46373705
     13.33333333	     -6.37951208	      9.26239713	      5.84956891	      2.32086125	      0.96502509	      1.01871661	     26.85523950	    -11.24727314	      3.33617513	    118.20388834	      2.06304704	     -5.01770456	     23.74019147	     11.81984796	     -6.26974923	     49.20290217	      0.85875264	     26.76742918
     13.34000000	     -6.17105204	      8.76081630	      5.42504661	      2.32049466	      0.96727981	      1.01837643	     29.44185021	    -10.73576032	      3.70331292	    117.77646877	      2.05558716	     -4.28266633	     20.96647391	     11.28229119	     -5.78170597	     48.04960902	      0.83862388	     27.64767134
     13.34666667	     -5.86335212	      8.16723740	      4.93674292	      2.32073955	      0.97024458	      1.01808478	     31.71138778	    -10.08198196	      3.85100744	    116.89949433	      2.04028107	     -3.52242432	     17.91156753	     10.63192591	     -5.35012515	     46.53937589	      0.81226534	     28.06583861
     13.35333333	     -6.22523562	      7.41566414	      4.68395690	      2.32136514	      0.97289012	      1.01747503	     34.49589834	     -9.43209936	      3.61823110	    115.67594948	      2.01892618	     -2.78222101	     15.51481091	      9.92489145	     -4.79019156	     44.88026447	      0.78330838	     27.92134056
     13.36000000	     -5.60411005	      6.56274153	      3.74148949	      2.32270336	      0.97723565	      1.01787169	     36.03282122	     -8.13438688	      3.61102609	    113.96894466	      1.98913333	     -1.99912875	     11.88949100	      8.85402332	     -4.89206002	     42.75941152	      0.74629252	     27.30287755
     13.36666667	     -6.13240898	      5.65464772	      3.36301862	      2.32417495	      0.98051258	      1.01761142	     38.56116727	     -7.17186091	      3.09034568	    112.03306040	      1.95534577	     -1.25276534	      9.53557968	      7.98505090	     -4.47174736	     40.66633982	      0.70976152	     26.03059566
     13.37333333	     -5.30550576	      4.61785747	      2.65085948	      2.32644882	      0.98595135	      1.01775627	     39.24013314	     -5.93248912	      2.38985879	    109.57429272	      1.91243218	     -0.39468078	      5.53669146	      6.79711257	     -4.59509659	     38.09041060	      0.66480308	     24.15913415
